<svg width="20" height="20" viewBox="0 0 20 20" fill="none" xmlns="http://www.w3.org/2000/svg">
<path opacity="0.3" d="M9.9999 5.41666C8.46762 5.41157 6.96501 5.83898 5.6648 6.64977C4.3646 7.46055 3.31958 8.6218 2.6499 10C4.0249 12.8083 6.83324 14.5833 9.9999 14.5833C13.1666 14.5833 15.9749 12.8083 17.3499 10C16.6802 8.6218 15.6352 7.46055 14.335 6.64977C13.0348 5.83898 11.5322 5.41157 9.9999 5.41666ZM9.9999 13.75C7.93324 13.75 6.2499 12.0667 6.2499 10C6.2499 7.93333 7.93324 6.25 9.9999 6.25C12.0666 6.25 13.7499 7.93333 13.7499 10C13.7499 12.0667 12.0666 13.75 9.9999 13.75Z" fill="#34A853"/>
<path d="M9.99992 3.75C5.83325 3.75 2.27492 6.34167 0.833252 10C2.27492 13.6583 5.83325 16.25 9.99992 16.25C14.1666 16.25 17.7249 13.6583 19.1666 10C17.7249 6.34167 14.1666 3.75 9.99992 3.75ZM9.99992 14.5833C8.46764 14.5884 6.96502 14.161 5.66482 13.3502C4.36461 12.5394 3.3196 11.3782 2.64992 10C4.02492 7.19167 6.84159 5.41667 9.99992 5.41667C13.1583 5.41667 15.9749 7.19167 17.3499 10C16.6802 11.3782 15.6352 12.5394 14.335 13.3502C13.0348 14.161 11.5322 14.5884 9.99992 14.5833ZM9.99992 6.25C7.93325 6.25 6.24992 7.93333 6.24992 10C6.24992 12.0667 7.93325 13.75 9.99992 13.75C12.0666 13.75 13.7499 12.0667 13.7499 10C13.7499 7.93333 12.0666 6.25 9.99992 6.25ZM9.99992 12.0833C9.44738 12.0833 8.91748 11.8638 8.52678 11.4731C8.13608 11.0824 7.91659 10.5525 7.91659 10C7.91659 9.44747 8.13608 8.91756 8.52678 8.52686C8.91748 8.13616 9.44738 7.91667 9.99992 7.91667C10.5525 7.91667 11.0824 8.13616 11.4731 8.52686C11.8638 8.91756 12.0833 9.44747 12.0833 10C12.0833 10.5525 11.8638 11.0824 11.4731 11.4731C11.0824 11.8638 10.5525 12.0833 9.99992 12.0833Z" fill="#34A853"/>
</svg>
