<svg width="22" height="22" viewBox="0 0 22 22" fill="none" xmlns="http://www.w3.org/2000/svg">
<path d="M20.7826 0C21.1168 0 21.4032 0.119358 21.6419 0.358073C21.8806 0.596788 22 0.883247 22 1.21745V20.7826C22 21.1168 21.8806 21.4032 21.6419 21.6419C21.4032 21.8806 21.1168 22 20.7826 22H15.1823V13.4779H18.0326L18.4622 10.1549H15.1823V8.03516C15.1823 7.50043 15.2945 7.09939 15.5189 6.83203C15.7433 6.56467 16.1801 6.43099 16.8294 6.43099L18.5768 6.41667V3.45182C17.9753 3.36589 17.1254 3.32292 16.0273 3.32292C14.7287 3.32292 13.6903 3.70486 12.9121 4.46875C12.1339 5.23264 11.7448 6.31163 11.7448 7.70573V10.1549H8.88021V13.4779H11.7448V22H1.21745C0.883247 22 0.596788 21.8806 0.358073 21.6419C0.119358 21.4032 0 21.1168 0 20.7826V1.21745C0 0.883247 0.119358 0.596788 0.358073 0.358073C0.596788 0.119358 0.883247 0 1.21745 0H20.7826Z" fill="white"/>
</svg>
