<svg width="26" height="26" viewBox="0 0 26 26" fill="none" xmlns="http://www.w3.org/2000/svg">
<g clip-path="url(#clip0_19_173)">
<path d="M25.9877 13.2432C25.9877 12.178 25.8992 11.4007 25.7078 10.5946H13.259V15.4024H20.5661C20.4189 16.5972 19.6233 18.3966 17.8554 19.6057L17.8307 19.7666L21.7667 22.746L22.0394 22.7726C24.5438 20.5126 25.9877 17.1874 25.9877 13.2432Z" fill="#4285F4"/>
<path d="M13.259 25.9107C16.8389 25.9107 19.8442 24.7591 22.0394 22.7726L17.8554 19.6057C16.7358 20.3686 15.2331 20.9012 13.259 20.9012C9.75279 20.9012 6.77691 18.6413 5.71609 15.5176L5.5606 15.5305L1.46783 18.6254L1.41431 18.7708C3.59465 23.0029 8.07325 25.9107 13.259 25.9107Z" fill="#34A853"/>
<path d="M5.71604 15.5176C5.43613 14.7115 5.27414 13.8478 5.27414 12.9553C5.27414 12.0628 5.43613 11.1992 5.70131 10.3931L5.6939 10.2214L1.54984 7.07677L1.41426 7.13978C0.515633 8.89597 0 10.8681 0 12.9553C0 15.0426 0.515633 17.0146 1.41426 18.7708L5.71604 15.5176Z" fill="#FBBC05"/>
<path d="M13.259 5.00937C15.7487 5.00937 17.4282 6.06018 18.3858 6.93833L22.1278 3.36839C19.8296 1.28115 16.8389 0 13.259 0C8.07325 0 3.59465 2.90773 1.41431 7.13978L5.70136 10.3931C6.77691 7.26938 9.75279 5.00937 13.259 5.00937Z" fill="#EB4335"/>
</g>
<defs>
<clipPath id="clip0_19_173">
<rect width="26" height="26" fill="white"/>
</clipPath>
</defs>
</svg>
